# xmcd CD Database Entry
#
# Track frame offsets:
# 150
# 15107
# 29909
# 48933
# 64072
# 80693
# 95472
# 109590
# 124388
# 137820
# 152315
# 166695
#
# Disc length: 2422 seconds
#
# Revision: 2
# Processed by: cddbd v1.5.1PL0 Copyright (c) Steve Scherf et al.
# Submitted via: RSJCDWriter_freedb_lib_OS/2 1.03
#
DISCID=9009740c
DTITLE=Sherrié Austin - Followin' A Feelin'
DYEAR=1900
DGENRE=blues
TTITLE0=Followin' A Feelin'
TTITLE1=Jolene
TTITLE2=Goin', Goin', Gone
TTITLE3=Somethin' Missin' In The Kissin'
TTITLE4=In The Meantime
TTITLE5=My Brilliant Mistake
TTITLE6=In Our Own Sweet Time
TTITLE7=Love Melts Even The Coldest Hearts
TTITLE8=Back Where I Belong
TTITLE9=Time, Love and Money
TTITLE10=The Liar
TTITLE11=Winter Wonderland
EXTD=
EXTT0=
EXTT1=
EXTT2=
EXTT3=
EXTT4=
EXTT5=
EXTT6=
EXTT7=
EXTT8=
EXTT9=
EXTT10=
EXTT11=
PLAYORDER=
